<svg xmlns="http://www.w3.org/2000/svg" xmlns:xlink="http://www.w3.org/1999/xlink" width="1000" zoomAndPan="magnify" viewBox="0 0 750 749.999995" height="1000" preserveAspectRatio="xMidYMid meet" version="1.0"><defs><g/><clipPath id="964a14d91c"><path d="M 0 0 L 750 0 L 750 749.960938 L 0 749.960938 Z M 0 0 " clip-rule="nonzero"/></clipPath></defs><rect x="-75" width="900" fill="#ffffff" y="-74.999999" height="899.999994" fill-opacity="1"/><rect x="-75" width="900" fill="#ffffeb" y="-74.999999" height="899.999994" fill-opacity="1"/><g clip-path="url(#964a14d91c)"><path stroke-linecap="round" transform="matrix(-1.634977, 0, 0, 1.634977, 10455.143013, -1467.334372)" fill-opacity="1" fill="#4ad4ff" fill-rule="evenodd" stroke-linejoin="round" d="M 5998.278842 795.733879 C 5977.980386 801.713992 5914.851136 892.153935 6003.769173 930.772608 C 6067.161232 958.303105 6173.090216 958.3485 6174.179681 1032.919522 C 6175.278703 1107.700793 6167.779073 1137.121131 6243.310545 1130.639291 C 6274.410475 1127.970579 6372.378718 1101.070824 6401.29016 1156.690887 C 6454.10055 1258.250064 6446.070523 1268.408849 6543.959923 1326.260405 C 6581.84034 1348.639835 6282.469172 1550.70934 6246.710346 1470.110421 C 6236.639961 1447.410841 6246.719902 1283.730648 6159.029903 1266.669528 C 5966.770363 1229.269336 6136.239535 1079.329305 6031.858738 1026.61926 C 5989.790093 1005.379468 5939.11085 1009.758831 5917.450562 951.711363 C 5891.668943 882.594834 5892.469317 883.889768 5857.181159 819.771399 " stroke="#000000" stroke-width="6.25" stroke-opacity="1" stroke-miterlimit="1.5"/></g><path fill="#ffffeb" d="M 652.984375 65.214844 C 657.25 62.757812 696.769531 40.695312 723.402344 16.476562 C 741.222656 0.269531 745.179688 -12.988281 738.609375 -22.667969 C 735.859375 -26.722656 732.640625 -27.847656 731.984375 -28.074219 C 740.0625 -26.546875 755.023438 -11.683594 733.425781 15.015625 C 722.175781 28.941406 705.320312 38.925781 703.308594 40.191406 C 682.5625 53.1875 656.007812 63.953125 652.984375 65.214844 Z M 652.984375 65.214844 " fill-opacity="1" fill-rule="evenodd"/><path fill="#ffffeb" d="M 515.875 301.644531 C 519.375 273.753906 520.355469 216.773438 571.234375 181.113281 C 619.648438 147.171875 695.835938 152.445312 720.65625 115.210938 L 720.933594 114.78125 C 708.378906 136.90625 680.859375 146.390625 644.222656 157.816406 C 603.394531 170.550781 568.472656 181.933594 544.46875 215.695312 C 522.9375 245.992188 519.816406 280.601562 515.875 301.644531 Z M 515.875 301.644531 " fill-opacity="1" fill-rule="evenodd"/><path fill="#ffffeb" d="M 257.777344 438.917969 C 291.574219 435.027344 369.644531 433.144531 383.65625 368.597656 C 388.429688 346.574219 384.113281 331.613281 384.980469 298 C 386.808594 226.828125 414.410156 198.167969 427.816406 186.511719 C 410.664062 203.496094 391.0625 232.925781 391.011719 296.378906 C 390.996094 331.53125 395.199219 345.234375 390.621094 367.304688 C 379.535156 420.6875 328.425781 431.691406 304.082031 435.304688 C 286.160156 437.96875 270.21875 438.148438 257.777344 438.917969 Z M 257.777344 438.917969 " fill-opacity="1" fill-rule="evenodd"/><path fill="#ffffeb" d="M 281.8125 635.507812 C 289.871094 608.152344 299.765625 584.085938 320.625 569.550781 C 342.160156 554.542969 370.574219 551.894531 422.730469 538.519531 C 475.246094 525.0625 471.925781 440.128906 493.117188 445.230469 L 493.363281 445.292969 C 488.472656 444.558594 484.695312 446.945312 480.28125 460.203125 C 471.960938 485.1875 465.238281 533.207031 424.464844 544.847656 C 372.847656 559.578125 337.664062 558.253906 313.824219 579.867188 C 299.027344 593.292969 290.117188 612.46875 281.8125 635.507812 Z M 281.8125 635.507812 " fill-opacity="1" fill-rule="evenodd"/><path fill="#ffffeb" d="M 12.203125 592 C 58.816406 568.882812 64.066406 566.855469 88.949219 537.375 C 107.574219 515.335938 113.082031 509.417969 121.503906 502.699219 C 137.230469 490.140625 148.644531 489.585938 151.0625 489.4375 C 163.945312 488.6875 171.027344 496.09375 172.890625 497.941406 C 168.835938 494.734375 152.632812 481.671875 125.738281 505.886719 C 112.640625 517.691406 108.847656 525.621094 89.945312 546.269531 C 78.371094 558.941406 69.933594 564.910156 68.007812 566.28125 C 55.15625 575.40625 39.425781 581.488281 12.203125 592 Z M 12.203125 592 " fill-opacity="1" fill-rule="evenodd"/><path fill="#ffffeb" d="M 79.648438 673.78125 C 108.324219 663.417969 113.210938 665.605469 129.1875 655.847656 C 135.679688 651.875 142.542969 647.035156 144.933594 645.054688 C 146.976562 643.355469 171.695312 621.640625 192.65625 609.152344 C 193.882812 608.398438 201.4375 603.953125 205.246094 603.640625 C 205.476562 603.625 205.6875 603.625 205.917969 603.625 C 199.425781 604.703125 185.660156 617.441406 166.5625 634.984375 C 152.386719 648.015625 149.332031 650.238281 147.726562 651.433594 C 147.300781 651.742188 137.769531 658.21875 128.46875 662.433594 C 122.238281 665.261719 117.398438 666.636719 111.414062 667.8125 C 102.324219 669.597656 98.253906 669.578125 79.648438 673.78125 Z M 79.648438 673.78125 " fill-opacity="1" fill-rule="evenodd"/><g fill="#1a1a1a" fill-opacity="1"><g transform="translate(224.999992, 560.000014)"><g><path d="M 41.5 -79.8125 L 140 -79.8125 L 140 -57 L 117.1875 -57 L 117.1875 -218.496094 L 140 -218.496094 L 140 -195.683594 L 31.1875 -195.683594 L 31.1875 -297.808594 L 222.808594 -297.808594 L 222.808594 -57 L 199.996094 -57 L 199.996094 -79.8125 L 302.308594 -79.8125 L 302.308594 22.8125 L 18.6875 22.8125 L 18.6875 -79.8125 Z M 41.5 -34.1875 L 41.5 -57 L 64.3125 -57 L 64.3125 0 L 41.5 0 L 41.5 -22.8125 L 279.496094 -22.8125 L 279.496094 0 L 256.683594 0 L 256.683594 -57 L 279.496094 -57 L 279.496094 -34.1875 L 177.183594 -34.1875 L 177.183594 -274.996094 L 199.996094 -274.996094 L 199.996094 -252.183594 L 54 -252.183594 L 54 -274.996094 L 76.8125 -274.996094 L 76.8125 -218.496094 L 54 -218.496094 L 54 -241.308594 L 162.8125 -241.308594 L 162.8125 -34.1875 Z M 99.1875 -349.496094 C 99.1875 -365.699219 104.808594 -379.132812 116.046875 -389.796875 C 126.949219 -400.136719 140.765625 -405.308594 157.5 -405.308594 L 170.5 -405.308594 C 187.230469 -405.308594 201.046875 -400.136719 211.949219 -389.796875 C 223.191406 -379.132812 228.808594 -365.699219 228.808594 -349.496094 C 228.808594 -332.722656 222.960938 -319.070312 211.257812 -308.539062 C 200.253906 -298.636719 186.5 -293.683594 170 -293.683594 L 157.5 -293.683594 C 140.886719 -293.683594 127.144531 -298.699219 116.277344 -308.734375 C 104.882812 -319.25 99.1875 -332.839844 99.1875 -349.496094 Z M 144.8125 -349.496094 C 144.8125 -346.15625 145.613281 -343.742188 147.222656 -342.257812 C 149.351562 -340.292969 152.777344 -339.308594 157.5 -339.308594 L 170 -339.308594 C 174.828125 -339.308594 178.410156 -340.355469 180.738281 -342.453125 C 182.371094 -343.921875 183.183594 -346.269531 183.183594 -349.496094 C 183.183594 -352.628906 182.304688 -355.027344 180.546875 -356.695312 C 178.449219 -358.6875 175.097656 -359.683594 170.5 -359.683594 L 157.5 -359.683594 C 152.898438 -359.683594 149.546875 -358.6875 147.449219 -356.695312 C 145.691406 -355.027344 144.8125 -352.628906 144.8125 -349.496094 Z M 144.8125 -349.496094 "/></g></g></g><g fill="#ffffeb" fill-opacity="1"><g transform="translate(224.999992, 560.000014)"><g><path d="M 41.5 -57 L 140 -57 L 140 -218.5 L 54 -218.5 L 54 -275 L 200 -275 L 200 -57 L 279.5 -57 L 279.5 0 L 41.5 0 Z M 122 -349.5 C 122 -359.164062 125.25 -367.082031 131.75 -373.25 C 138.25 -379.414062 146.832031 -382.5 157.5 -382.5 L 170.5 -382.5 C 181.164062 -382.5 189.75 -379.414062 196.25 -373.25 C 202.75 -367.082031 206 -359.164062 206 -349.5 C 206 -339.5 202.664062 -331.5 196 -325.5 C 189.332031 -319.5 180.664062 -316.5 170 -316.5 L 157.5 -316.5 C 146.832031 -316.5 138.25 -319.5 131.75 -325.5 C 125.25 -331.5 122 -339.5 122 -349.5 Z M 122 -349.5 "/></g></g></g></svg>